
v  3.9995 -21.1237 -56.1339
v  -10.9806 -0.2187 -30.4257
v  26.1446 32.6577 -30.4257
v  41.1247 -7.1548 -56.1339
v  8.0256 -55.7416 -24.3012
v  45.1508 -17.8549 -39.7375
v  8.4646 21.9576 -8.2461
v  -6.9545 7.9886 -14.0293

vn -0.3300 0.5143 -0.7916
vn -0.4699 0.5307 -0.7054
vn -0.3229 0.5131 -0.7953
vn -0.1822 0.4841 -0.8558
vn 0.3950 -0.1880 0.8992
vn 0.5250 -0.1751 0.8329
vn 0.1738 -0.2002 0.9642
vn -0.1819 -0.1980 0.9632
vn 0.3228 -0.6598 -0.6786
vn 0.2889 -0.7677 -0.5719
vn 0.3112 -0.7013 -0.6413
vn 0.3331 -0.6169 -0.7130
vn 0.8452 0.4332 0.3130
vn 0.7986 -0.0843 0.5959
vn 0.8501 0.1049 0.5160
vn 0.7914 0.5824 0.1857
vn -0.6419 0.7474 -0.1713
vn -0.6486 0.7324 -0.2073
vn -0.6452 0.7405 -0.1883
vn -0.6354 0.7594 -0.1401
vn -0.9396 -0.3044 0.1562
vn -0.9064 -0.3382 -0.2531
vn -0.9406 -0.3305 -0.0771
vn -0.8961 -0.2677 0.3540

g Box001
f 1//1 2//2 3//3 
f 3//3 4//4 1//1 
f 5//5 6//6 7//7 
f 7//7 8//8 5//5 
f 1//9 4//10 6//11 
f 6//11 5//12 1//9 
f 4//13 3//14 7//15 
f 7//15 6//16 4//13 
f 3//17 2//18 8//19 
f 8//19 7//20 3//17 
f 2//21 1//22 5//23 
f 5//23 8//24 2//21 

